SplineFontDB: 3.0
FontName: DINSchablonierschrift
FullName: DIN Schablonierschrift
FamilyName: DIN Schablonierschrift
Weight: Book
Copyright: Marian Steinbach <marian@sendung.de>
FontLog: "Created by Marian Steinbach in 1997 based on metal stencils using font editor Manutius.+AAoACgAA-Exported to Mac/PC PostScript and TrueType on a Mac using Macromedia Fontographer in 2004.+AAoACgAA-Imported into FontForge using the TTF version on Oct 9, 2012.+AAoACgAA-Published as open source software by Marian on Oct 9, 2012." 
Version: 2
DefaultBaseFilename: DIN_Schablonierschrift
ItalicAngle: 0
UnderlinePosition: -50
UnderlineWidth: 100
Ascent: 800
Descent: 200
sfntRevision: 0x00010000
LayerCount: 2
Layer: 0 1 "Back"  1
Layer: 1 1 "Zeichenebene"  0
XUID: [1021 428 2041439603 3690171]
FSType: 8
OS2Version: 2
OS2_WeightWidthSlopeOnly: 0
OS2_UseTypoMetrics: 1
CreationTime: 1080096720
ModificationTime: 1349788666
PfmFamily: 81
TTFWeight: 400
TTFWidth: 5
LineGap: 0
VLineGap: 0
Panose: 0 0 4 0 0 0 0 0 0 0
OS2TypoAscent: 850
OS2TypoAOffset: 0
OS2TypoDescent: -94
OS2TypoDOffset: 0
OS2TypoLinegap: 0
OS2WinAscent: 850
OS2WinAOffset: 0
OS2WinDescent: 94
OS2WinDOffset: 0
HheadAscent: 882
HheadAOffset: 0
HheadDescent: -118
HheadDOffset: 0
OS2SubXSize: 700
OS2SubYSize: 650
OS2SubXOff: 0
OS2SubYOff: 143
OS2SupXSize: 700
OS2SupYSize: 650
OS2SupXOff: 0
OS2SupYOff: 453
OS2StrikeYSize: 50
OS2StrikeYPos: 259
OS2Vendor: '    '
OS2CodePages: 00000001.00000000
OS2UnicodeRanges: 00000003.00000000.00000000.00000000
MarkAttachClasses: 1
DEI: 91125
TtTable: prep
NPUSHB
 5
 1
 1
 0
 0
 1
SCANTYPE
PUSHW_1
 511
SCANCTRL
RCVT
ROUND[Grey]
WCVTP
RCVT
ROUND[Grey]
WCVTP
PUSHB_4
 3
 2
 70
 0
CALL
PUSHB_4
 5
 4
 70
 0
CALL
PUSHB_2
 2
 2
RCVT
ROUND[Grey]
WCVTP
PUSHB_2
 4
 4
RCVT
ROUND[Grey]
WCVTP
EndTTInstrs
TtTable: fpgm
NPUSHB
 1
 0
FDEF
SROUND
RCVT
DUP
PUSHB_1
 3
CINDEX
RCVT
SWAP
SUB
ROUND[Grey]
RTG
SWAP
ROUND[Grey]
ADD
WCVTP
ENDF
EndTTInstrs
ShortTable: cvt  10
  -1
  701
  100
  98
  102
  99
  23138
  23138

StartChar: .notdef
Encoding: 256 -1 0
Width: 500
Flags: W
LayerCount: 2
Fore
SplineSet
63 0 m 1,0,-1
 63 882 l 1,1,-1
 438 882 l 1,2,-1
 438 0 l 1,3,-1
 63 0 l 1,0,-1
125 63 m 1,4,-1
 375 63 l 1,5,-1
 375 820 l 1,6,-1
 125 820 l 1,7,-1
 125 63 l 1,4,-1
EndSplineSet
Validated: 1
EndChar

StartChar: exclam
Encoding: 33 33 4
Width: 244
Flags: W
HStem: 0 103<70 174> 680 20G<73 171>
VStem: 70 104<0 103 191 700>
LayerCount: 2
Fore
SplineSet
167 191 m 2,0,-1
 77 191 l 2,1,2
 70 191 70 191 70 197 c 2,3,-1
 70 693 l 2,4,5
 70 700 70 700 76 700 c 2,6,-1
 168 700 l 2,7,8
 174 700 174 700 174 695 c 2,9,-1
 174 198 l 2,10,11
 174 191 174 191 167 191 c 2,0,-1
169 0 m 2,12,-1
 74 0 l 2,13,14
 70 0 70 0 70 4 c 2,15,-1
 70 97 l 2,16,17
 70 103 70 103 75 103 c 2,18,-1
 169 103 l 2,19,20
 174 103 174 103 174 98 c 2,21,-1
 174 5 l 2,22,23
 174 0 174 0 169 0 c 2,12,-1
EndSplineSet
Validated: 1
EndChar

StartChar: ampersand
Encoding: 38 38 5
Width: 500
Flags: MW
VStem: 0 98<142.34 284.235> 52 100<498.969 594.115> 257 101<507.921 594.677>
LayerCount: 2
Fore
SplineSet
98 202 m 0,0,1
 98 155 98 155 136 126 c 0,2,3
 169 100 169 100 208 102 c 1,4,-1
 251 12 l 2,5,6
 253 7 253 7 251 6 c 0,7,8
 235 0 235 0 202 0 c 0,9,10
 119 0 119 0 59.5 59.5 c 128,-1,11
 0 119 0 119 0 202 c 0,12,13
 0 255 0 255 18 292 c 0,14,15
 32 320 32 320 69 359 c 0,16,17
 74 365 74 365 79 359 c 1,18,-1
 121 279 l 2,19,20
 123 276 123 276 121 271 c 1,21,22
 98 244 98 244 98 202 c 0,0,1
422 0 m 2,23,24
 312 0 l 1,25,-1
 69 480 l 2,26,27
 52 514 52 514 52 549 c 0,28,29
 52 613 52 613 85 653 c 128,-1,30
 118 693 118 693 180 700 c 0,31,32
 185 700 185 700 185 697 c 2,33,-1
 185 599 l 1,34,35
 152 590 152 590 152 552 c 0,36,37
 152 540 152 540 156 532 c 2,38,-1
 324 200 l 1,39,-1
 417 200 l 2,40,41
 423 200 423 200 423 193 c 0,42,43
 423 129 423 129 379 87 c 1,44,-1
 423 6 l 2,45,46
 426 0 426 0 422 0 c 2,23,24
358 552 m 0,47,48
 358 508 358 508 335.5 469 c 128,-1,49
 313 430 313 430 279 409 c 0,50,51
 271 405 271 405 268 411 c 2,52,-1
 227 497 l 1,53,54
 224 500 224 500 227 503 c 1,55,56
 257 517 257 517 257 552 c 0,57,58
 257 586 257 586 235 595 c 1,59,60
 231 595 231 595 231 598 c 2,61,-1
 231 696 l 2,62,63
 231 700 231 700 236 700 c 0,64,65
 294 691 294 691 326 650.5 c 128,-1,66
 358 610 358 610 358 552 c 0,47,48
EndSplineSet
Validated: 33
EndChar

StartChar: comma
Encoding: 44 44 6
Width: 260
Flags: W
LayerCount: 2
Fore
SplineSet
134 -94 m 2,0,-1
 46 -94 l 2,1,2
 39 -94 39 -94 41 -89 c 2,3,-1
 80 0 l 1,4,-1
 80 97 l 2,5,6
 80 100 80 100 83 100 c 2,7,-1
 176 100 l 2,8,9
 180 100 180 100 180 97 c 2,10,-1
 180 0 l 1,11,-1
 141 -89 l 2,12,13
 138 -94 138 -94 134 -94 c 2,0,-1
EndSplineSet
Validated: 1
EndChar

StartChar: uni2010
Encoding: 259 8208 7
AltUni2: 002010.ffffffff.0
Width: 272
Flags: W
LayerCount: 2
Fore
SplineSet
40 282 m 2,0,-1
 40 367 l 2,1,2
 40 374 40 374 46 374 c 2,3,-1
 225 374 l 2,4,5
 232 374 232 374 232 368 c 2,6,-1
 232 281 l 2,7,8
 232 275 232 275 227 275 c 2,9,-1
 46 275 l 2,10,11
 40 275 40 275 40 282 c 2,0,-1
EndSplineSet
Validated: 1
EndChar

StartChar: period
Encoding: 46 46 8
Width: 260
Flags: W
LayerCount: 2
Fore
SplineSet
176 0 m 2,0,-1
 84 0 l 2,1,2
 80 0 80 0 80 4 c 2,3,-1
 80 97 l 2,4,5
 80 100 80 100 83 100 c 2,6,-1
 176 100 l 2,7,8
 180 100 180 100 180 97 c 2,9,-1
 180 4 l 2,10,11
 180 0 180 0 176 0 c 2,0,-1
EndSplineSet
Validated: 1
EndChar

StartChar: zero
Encoding: 48 48 9
Width: 450
Flags: MW
VStem: 46 103<122.463 579.286> 304 100<126.857 581.085>
LayerCount: 2
Fore
SplineSet
203 698 m 2,0,1
 203 605 l 2,2,3
 203 599 203 599 199 598 c 0,4,5
 180 592 180 592 164.5 572 c 128,-1,6
 149 552 149 552 149 529 c 2,7,-1
 149 176 l 2,8,9
 149 129 149 129 195 105 c 0,10,11
 201 102 201 102 201 96 c 2,12,-1
 201 4 l 2,13,14
 201 -1 201 -1 194 0 c 0,15,16
 129 13 129 13 89 60 c 0,17,18
 46 110 46 110 46 186 c 2,19,-1
 46 519 l 2,20,21
 46 586 46 586 90.5 641.5 c 128,-1,22
 135 697 135 697 197 703 c 0,23,24
 203 703 203 703 203 698 c 2,0,1
250 698 m 2,25,26
 250 703 250 703 259 702 c 0,27,28
 320 693 320 693 362 643.5 c 128,-1,29
 404 594 404 594 404 529 c 2,30,-1
 404 186 l 2,31,32
 404 117 404 117 363 64.5 c 128,-1,33
 322 12 322 12 256 0 c 1,34,35
 248 0 248 0 248 3 c 2,36,-1
 248 98 l 2,37,38
 248 103 248 103 253 105 c 0,39,40
 274 112 274 112 289 135 c 128,-1,41
 304 158 304 158 304 179 c 2,42,-1
 304 527 l 2,43,44
 304 578 304 578 256 598 c 0,45,46
 250 600 250 600 250 604 c 2,47,-1
 250 698 l 2,25,26
EndSplineSet
Validated: 1
EndChar

StartChar: one
Encoding: 49 49 10
Width: 450
Flags: MW
VStem: 210 104<0 551>
LayerCount: 2
Fore
SplineSet
307 0 m 2,0,-1
 217 0 l 2,1,2
 210 0 210 0 210 6 c 2,3,-1
 210 551 l 1,4,-1
 124 463 l 1,5,6
 117 458 117 458 117 465 c 2,7,-1
 117 598 l 1,8,-1
 215 700 l 1,9,-1
 308 700 l 2,10,11
 314 700 314 700 314 695 c 2,12,-1
 314 7 l 2,13,14
 314 0 314 0 307 0 c 2,0,-1
EndSplineSet
Validated: 1
EndChar

StartChar: two
Encoding: 50 50 11
Width: 450
Flags: MW
VStem: 50 118<-1 102> 214 184<0 101> 303 97<471.427 584.686>
LayerCount: 2
Fore
SplineSet
219 101 m 2,0,1
 392 101 l 2,2,3
 398 101 398 101 398 96 c 2,4,-1
 398 6 l 2,5,6
 398 0 398 0 392 0 c 2,7,-1
 222 0 l 2,8,9
 214 0 214 0 214 7 c 2,10,-1
 214 96 l 2,11,12
 214 101 214 101 219 101 c 2,0,1
203 696 m 2,13,-1
 203 608 l 2,14,15
 203 600 203 600 199 599 c 0,16,17
 170 589 170 589 156 560 c 0,18,19
 153 553 153 553 150 553 c 2,20,21
 58 553 l 2,22,23
 53 553 53 553 53 559 c 0,24,25
 60 611 60 611 104.5 653.5 c 128,-1,26
 149 696 149 696 198 701 c 0,27,28
 203 701 203 701 203 696 c 2,13,-1
252 694 m 2,29,30
 252 703 252 703 260 701 c 0,31,32
 316 691 316 691 356 646 c 0,33,34
 400 596 400 596 400 530 c 0,35,36
 400 477 400 477 376 438 c 2,37,-1
 168 102 l 1,38,-1
 168 6 l 2,39,40
 168 -1 168 -1 163 -1 c 2,41,-1
 56 -1 l 2,42,43
 50 -1 50 -1 50 7 c 2,44,-1
 50 97 l 2,45,46
 50 100 50 100 54 108 c 2,47,-1
 290 484 l 1,48,49
 303 511 303 511 303 528 c 0,50,51
 303 583 303 583 252 602 c 1,52,-1
 252 694 l 2,29,30
EndSplineSet
Validated: 1
EndChar

StartChar: three
Encoding: 51 51 12
Width: 450
Flags: MW
HStem: 0 100<237 264.895> 298 100<188 263.695> 600 100
VStem: 289 103<123.578 276.495 424.096 579.826>
LayerCount: 2
Fore
SplineSet
192 695 m 2,0,1
 192 596 l 1,2,3
 181 594 181 594 166 580.5 c 128,-1,4
 151 567 151 567 147 555 c 0,5,6
 145 550 145 550 141 550 c 2,7,-1
 48 550 l 2,8,9
 43 550 43 550 43 555 c 1,10,11
 56 611 56 611 89 646 c 0,12,13
 132 691 132 691 188 700 c 0,14,15
 192 700 192 700 192 695 c 2,0,1
238 597 m 1,16,-1
 238 692 l 2,17,18
 238 701 238 701 248 699 c 0,19,20
 322 684 322 684 361 627 c 0,21,22
 392 580 392 580 392 526 c 2,23,-1
 392 476 l 2,24,25
 392 408 392 408 340 348 c 1,26,27
 392 289 392 289 392 214 c 2,28,-1
 392 165 l 2,29,30
 392 99 392 99 340 47 c 0,31,32
 295 1 295 1 247 -3 c 0,33,34
 237 -3 237 -3 237 5 c 2,35,-1
 237 98 l 2,36,37
 237 105 237 105 243 106 c 0,38,39
 259 111 259 111 274 132 c 128,-1,40
 289 153 289 153 289 172 c 2,41,-1
 289 226 l 2,42,43
 289 254 289 254 267.5 276.5 c 128,-1,44
 246 299 246 299 219 299 c 2,45,-1
 194 299 l 2,46,47
 188 299 188 299 188 306 c 2,48,-1
 188 394 l 2,49,50
 188 400 188 400 195 400 c 2,51,-1
 217 400 l 2,52,53
 247 400 247 400 268.5 424.5 c 128,-1,54
 290 449 290 449 290 481 c 2,55,-1
 290 528 l 2,56,57
 290 555 290 555 272 576 c 0,58,59
 256 594 256 594 238 597 c 1,16,-1
191 4 m 2,60,61
 191 -3 191 -3 184 -3 c 1,62,63
 126 10 126 10 85 52 c 0,64,65
 56 82 56 82 42 141 c 1,66,67
 42 147 42 147 47 147 c 2,68,-1
 140 147 l 2,69,70
 146 147 146 147 146 142 c 1,71,72
 154 128 154 128 159 122 c 0,73,74
 168 112 168 112 184 105 c 0,75,76
 191 102 191 102 191 98 c 2,77,-1
 191 4 l 2,60,61
EndSplineSet
Validated: 1
EndChar

StartChar: four
Encoding: 52 52 13
Width: 450
Flags: W
LayerCount: 2
Fore
SplineSet
259 353 m 2,0,-1
 344 353 l 2,1,2
 351 353 351 353 351 347 c 2,3,-1
 351 202 l 1,4,-1
 397 202 l 2,5,6
 403 202 403 202 403 198 c 2,7,-1
 403 104 l 2,8,9
 403 101 403 101 398 101 c 2,10,-1
 351 101 l 1,11,-1
 351 7 l 2,12,13
 351 0 351 0 345 0 c 2,14,-1
 258 0 l 2,15,16
 252 0 252 0 252 5 c 2,17,-1
 252 347 l 2,18,19
 252 353 252 353 259 353 c 2,0,-1
50 105 m 2,20,-1
 50 202 l 1,21,-1
 171 696 l 2,22,23
 172 700 172 700 177 700 c 2,24,-1
 276 700 l 2,25,26
 279 700 279 700 277 695 c 2,27,-1
 160 197 l 1,28,-1
 199 197 l 2,29,30
 206 197 206 197 206 191 c 2,31,-1
 206 104 l 2,32,33
 206 98 206 98 201 98 c 2,34,-1
 56 98 l 2,35,36
 50 98 50 98 50 105 c 2,20,-1
EndSplineSet
Validated: 1
EndChar

StartChar: five
Encoding: 53 53 14
Width: 450
Flags: W
LayerCount: 2
Fore
SplineSet
145 299 m 2,0,-1
 59 299 l 2,1,2
 53 299 53 299 53 305 c 2,3,-1
 53 693 l 2,4,5
 53 700 53 700 59 700 c 2,6,-1
 145 700 l 2,7,8
 151 700 151 700 151 695 c 2,9,-1
 151 305 l 2,10,11
 151 299 151 299 145 299 c 2,0,-1
201 608 m 2,12,-1
 201 692 l 2,13,14
 201 699 201 699 207 699 c 2,15,-1
 347 699 l 2,16,17
 354 699 354 699 354 693 c 2,18,-1
 354 607 l 2,19,20
 354 601 354 601 349 601 c 2,21,-1
 207 601 l 2,22,23
 201 601 201 601 201 608 c 2,12,-1
231 352 m 0,24,25
 220 352 220 352 205 347 c 0,26,27
 201 345 201 345 201 350 c 2,28,-1
 201 446 l 2,29,30
 201 449 201 449 205 450 c 1,31,-1
 230 450 l 2,32,33
 305 450 305 450 355 398 c 128,-1,34
 405 346 405 346 405 275 c 2,35,-1
 405 176 l 2,36,37
 405 112 405 112 368 65 c 0,38,39
 329 14 329 14 262 0 c 0,40,41
 255 -1 255 -1 255 6 c 2,42,-1
 255 103 l 1,43,44
 305 125 305 125 305 176 c 2,45,-1
 305 271 l 2,46,47
 305 305 305 305 283 328.5 c 128,-1,48
 261 352 261 352 231 352 c 0,24,25
207 101 m 1,49,50
 207 1 l 2,51,52
 207 -5 207 -5 203 -5 c 0,53,54
 138 11 138 11 104 48 c 0,55,56
 63 92 63 92 57 140 c 0,57,58
 57 145 57 145 62 145 c 2,59,-1
 152 145 l 2,60,61
 160 145 160 145 160 142 c 0,62,63
 162 130 162 130 177.5 117.5 c 128,-1,64
 193 105 193 105 207 101 c 1,49,50
EndSplineSet
Validated: 1
EndChar

StartChar: six
Encoding: 54 54 15
Width: 450
Flags: W
LayerCount: 2
Fore
SplineSet
227 600 m 0,0,1
 198 600 198 600 175.5 579 c 128,-1,2
 153 558 153 558 153 527 c 2,3,-1
 153 171 l 2,4,5
 153 126 153 126 193 105 c 1,6,7
 200 104 200 104 200 98 c 2,8,-1
 200 7 l 2,9,10
 200 -1 200 -1 193 1 c 0,11,12
 126 16 126 16 87 68 c 0,13,14
 51 115 51 115 51 176 c 2,15,-1
 51 521 l 2,16,17
 51 596 51 596 102.5 649.5 c 128,-1,18
 154 703 154 703 224 703 c 0,19,20
 298 703 298 703 348 655 c 0,21,22
 387 618 387 618 401 564 c 0,23,24
 403 553 403 553 394 553 c 2,25,-1
 299 553 l 1,26,27
 278 600 278 600 227 600 c 0,0,1
227 351 m 0,28,29
 220 351 220 351 202 345 c 0,30,31
 198 343 198 343 198 348 c 2,32,-1
 198 447 l 2,33,34
 198 450 198 450 202 451 c 2,35,-1
 225 453 l 2,36,37
 297 459 297 459 351 405 c 128,-1,38
 405 351 405 351 405 275 c 2,39,-1
 405 177 l 2,40,41
 405 112 405 112 365 61.5 c 128,-1,42
 325 11 325 11 257 -1 c 0,43,44
 250 -2 250 -2 250 5 c 2,45,-1
 250 101 l 1,46,47
 305 121 305 121 305 177 c 2,48,-1
 305 274 l 2,49,50
 305 309 305 309 281 330 c 128,-1,51
 257 351 257 351 227 351 c 0,28,29
EndSplineSet
Validated: 33
EndChar

StartChar: seven
Encoding: 55 55 16
Width: 450
Flags: W
LayerCount: 2
Fore
SplineSet
162 0 m 1,0,-1
 52 0 l 1,1,-1
 295 599 l 1,2,-1
 295 693 l 2,3,4
 295 700 295 700 301 700 c 2,5,-1
 396 700 l 2,6,7
 402 700 402 700 402 695 c 2,8,-1
 402 596 l 1,9,-1
 162 0 l 1,0,-1
249 602 m 2,10,11
 249 596 249 596 244 596 c 2,12,-1
 153 596 l 1,13,-1
 153 528 l 2,14,15
 153 524 153 524 148 524 c 2,16,-1
 57 524 l 2,17,18
 52 524 52 524 52 529 c 2,19,-1
 52 693 l 2,20,21
 52 700 52 700 59 700 c 2,22,-1
 244 700 l 2,23,24
 249 700 249 700 249 695 c 2,25,-1
 249 602 l 2,10,11
EndSplineSet
Validated: 1
EndChar

StartChar: eight
Encoding: 56 56 17
Width: 450
Flags: W
LayerCount: 2
Fore
SplineSet
400 509 m 0,0,1
 400 424 400 424 349 377 c 1,2,3
 401 325 401 325 401 251 c 2,4,-1
 401 167 l 2,5,6
 401 80 401 80 332 32 c 0,7,8
 286 0 286 0 255 0 c 1,9,-1
 251 4 l 1,10,-1
 251 100 l 2,11,12
 251 104 251 104 256 105 c 1,13,14
 275 114 275 114 289.5 136 c 128,-1,15
 304 158 304 158 304 181 c 2,16,-1
 304 247 l 2,17,18
 304 304 304 304 250 327 c 1,19,-1
 250 426 l 1,20,21
 283 444 283 444 294 467 c 1,22,23
 301 484 301 484 301 518 c 0,24,25
 301 576 301 576 257 597 c 1,26,27
 249 597 249 597 249 604 c 2,28,-1
 249 696 l 2,29,30
 249 701 249 701 255 701 c 1,31,32
 320 690 320 690 358 642 c 1,33,34
 400 591 400 591 400 509 c 0,0,1
202 426 m 1,35,-1
 202 326 l 1,36,37
 152 303 152 303 152 254 c 2,38,-1
 152 166 l 2,39,40
 152 148 152 148 167 129 c 128,-1,41
 182 110 182 110 199 105 c 0,42,43
 203 104 203 104 203 98 c 2,44,-1
 203 5 l 2,45,46
 203 1 203 1 198 1 c 0,47,48
 128 12 128 12 87 67 c 0,49,50
 49 118 49 118 49 184 c 2,51,-1
 49 254 l 2,52,53
 49 290 49 290 64.5 325.5 c 128,-1,54
 80 361 80 361 101 376 c 1,55,56
 47 424 47 424 47 507 c 0,57,58
 47 611 47 611 115 666 c 0,59,60
 159 701 159 701 196 701 c 0,61,62
 200 701 200 701 200 696 c 2,63,-1
 200 606 l 2,64,65
 200 600 200 600 195 598 c 0,66,67
 172 584 172 584 162 569 c 0,68,69
 150 549 150 549 150 511 c 0,70,71
 150 471 150 471 170 449 c 0,72,73
 174 444 174 444 202 426 c 1,35,-1
EndSplineSet
Validated: 1
EndChar

StartChar: nine
Encoding: 57 57 18
Width: 450
Flags: W
LayerCount: 2
Fore
SplineSet
222 103 m 0,0,1
 251 103 251 103 273.5 124 c 128,-1,2
 296 145 296 145 296 176 c 2,3,-1
 296 532 l 2,4,5
 296 577 296 577 256 598 c 1,6,7
 249 599 249 599 249 605 c 2,8,-1
 249 696 l 2,9,10
 249 704 249 704 256 702 c 0,11,12
 323 687 323 687 362 635 c 0,13,14
 398 588 398 588 398 527 c 2,15,-1
 398 182 l 2,16,17
 398 107 398 107 346.5 53.5 c 128,-1,18
 295 0 295 0 225 0 c 0,19,20
 151 0 151 0 101 48 c 0,21,22
 62 85 62 85 48 139 c 0,23,24
 46 150 46 150 55 150 c 2,25,-1
 150 150 l 1,26,27
 171 103 171 103 222 103 c 0,0,1
222 352 m 0,28,29
 229 352 229 352 247 358 c 0,30,31
 251 360 251 360 251 355 c 2,32,-1
 251 256 l 2,33,34
 251 253 251 253 247 252 c 2,35,-1
 224 250 l 2,36,37
 152 244 152 244 98 298 c 128,-1,38
 44 352 44 352 44 428 c 2,39,-1
 44 526 l 2,40,41
 44 591 44 591 84 641.5 c 128,-1,42
 124 692 124 692 192 704 c 0,43,44
 199 705 199 705 199 698 c 2,45,-1
 199 602 l 1,46,47
 144 582 144 582 144 526 c 2,48,-1
 144 429 l 2,49,50
 144 394 144 394 168 373 c 128,-1,51
 192 352 192 352 222 352 c 0,28,29
EndSplineSet
Validated: 33
EndChar

StartChar: colon
Encoding: 58 58 19
Width: 260
Flags: W
LayerCount: 2
Fore
SplineSet
176 0 m 2,0,-1
 84 0 l 2,1,2
 80 0 80 0 80 4 c 2,3,-1
 80 97 l 2,4,5
 80 100 80 100 83 100 c 2,6,-1
 176 100 l 2,7,8
 180 100 180 100 180 97 c 2,9,-1
 180 4 l 2,10,11
 180 0 180 0 176 0 c 2,0,-1
176 398 m 2,12,-1
 84 398 l 2,13,14
 80 398 80 398 80 402 c 2,15,-1
 80 495 l 2,16,17
 80 498 80 498 83 498 c 2,18,-1
 176 498 l 2,19,20
 180 498 180 498 180 495 c 2,21,-1
 180 402 l 2,22,23
 180 398 180 398 176 398 c 2,12,-1
EndSplineSet
Validated: 1
EndChar

StartChar: semicolon
Encoding: 59 59 20
Width: 260
Flags: W
LayerCount: 2
Fore
SplineSet
134 -94 m 2,0,-1
 46 -94 l 2,1,2
 39 -94 39 -94 41 -89 c 2,3,-1
 80 0 l 1,4,-1
 80 97 l 2,5,6
 80 100 80 100 83 100 c 2,7,-1
 176 100 l 2,8,9
 180 100 180 100 180 97 c 2,10,-1
 180 0 l 1,11,-1
 141 -89 l 2,12,13
 138 -94 138 -94 134 -94 c 2,0,-1
176 398 m 2,14,-1
 84 398 l 2,15,16
 80 398 80 398 80 402 c 2,17,-1
 80 495 l 2,18,19
 80 498 80 498 83 498 c 2,20,-1
 176 498 l 2,21,22
 180 498 180 498 180 495 c 2,23,-1
 180 402 l 2,24,25
 180 398 180 398 176 398 c 2,14,-1
EndSplineSet
Validated: 1
EndChar

StartChar: A
Encoding: 65 65 21
Width: 631
Flags: W
LayerCount: 2
Fore
SplineSet
569 0 m 2,0,-1
 462 0 l 1,1,2
 461 1 461 1 459 4 c 1,3,-1
 262 692 l 2,4,5
 260 700 260 700 265 700 c 2,6,-1
 362 700 l 2,7,8
 364 700 364 700 366 696 c 2,9,-1
 570 5 l 2,10,11
 571 0 571 0 569 0 c 2,0,-1
162 0 m 2,12,-1
 67 0 l 2,13,14
 60 0 60 0 60 6 c 1,15,-1
 229 603 l 2,16,17
 230 606 230 606 233 606 c 256,18,19
 236 606 236 606 237 603 c 2,20,-1
 285 429 l 1,21,-1
 235 250 l 1,22,-1
 340 250 l 2,23,24
 341 250 341 250 343 248 c 1,25,-1
 369 149 l 2,26,27
 370 145 370 145 366 145 c 2,28,-1
 204 145 l 1,29,-1
 166 2 l 2,30,31
 165 0 165 0 162 0 c 2,12,-1
EndSplineSet
Validated: 1
EndChar

StartChar: B
Encoding: 66 66 22
Width: 539
Flags: W
HStem: 0 101<223 338.047> 301 98<223 335.901> 599 101<223 340.644>
VStem: 75 104<0 700> 375 99<136.049 264.416 437.787 565.315>
CounterMasks: 1 e0
LayerCount: 2
Fore
SplineSet
172 0 m 2,0,-1
 82 0 l 2,1,2
 75 0 75 0 75 6 c 2,3,-1
 75 693 l 2,4,5
 75 700 75 700 81 700 c 2,6,-1
 173 700 l 2,7,8
 179 700 179 700 179 695 c 2,9,-1
 179 7 l 2,10,11
 179 0 179 0 172 0 c 2,0,-1
269 301 m 2,12,-1
 230 301 l 2,13,14
 223 301 223 301 223 308 c 2,15,-1
 223 392 l 2,16,17
 223 399 223 399 230 399 c 2,18,-1
 270 399 l 2,19,20
 316 399 316 399 347 430 c 0,21,22
 375 459 375 459 375 500 c 0,23,24
 375 544 375 544 347.5 571.5 c 128,-1,25
 320 599 320 599 270 599 c 2,26,-1
 230 599 l 2,27,28
 223 599 223 599 223 605 c 2,29,-1
 223 694 l 2,30,31
 223 700 223 700 229 700 c 2,32,-1
 272 700 l 2,33,34
 364 700 364 700 419 645 c 128,-1,35
 474 590 474 590 474 501 c 0,36,37
 474 402 474 402 410 347 c 1,38,39
 474 283 474 283 474 201 c 0,40,41
 474 107 474 107 420 53.5 c 128,-1,42
 366 0 366 0 275 0 c 2,43,-1
 230 0 l 2,44,45
 223 0 223 0 223 7 c 2,46,-1
 223 94 l 2,47,48
 223 101 223 101 230 101 c 2,49,-1
 269 101 l 2,50,51
 319 101 319 101 348 130 c 0,52,53
 375 156 375 156 375 200 c 256,54,55
 375 244 375 244 346 272.5 c 128,-1,56
 317 301 317 301 269 301 c 2,12,-1
EndSplineSet
Validated: 1
EndChar

StartChar: C
Encoding: 67 67 23
Width: 542
Flags: W
LayerCount: 2
Fore
SplineSet
241 600 m 0,0,1
 173 584 173 584 173 494 c 2,2,-1
 173 206 l 2,3,4
 173 115 173 115 241 100 c 0,5,6
 248 98 248 98 248 93 c 2,7,-1
 248 6 l 2,8,9
 248 -1 248 -1 241 0 c 0,10,11
 69 23 69 23 69 211 c 2,12,-1
 69 489 l 2,13,14
 69 579 69 579 113 634.5 c 128,-1,15
 157 690 157 690 241 700 c 0,16,17
 248 701 248 701 248 694 c 2,18,-1
 248 607 l 2,19,20
 248 602 248 602 241 600 c 0,0,1
301 601 m 0,21,22
 294 602 294 602 294 608 c 2,23,-1
 294 695 l 2,24,25
 294 702 294 702 301 701 c 0,26,27
 385 691 385 691 431 634 c 0,28,29
 473 581 473 581 473 504 c 0,30,31
 473 498 473 498 467 498 c 2,32,-1
 376 498 l 2,33,34
 369 498 369 498 369 504 c 0,35,36
 367 587 367 587 301 601 c 0,21,22
301 101 m 0,37,38
 367 115 367 115 369 198 c 0,39,40
 369 204 369 204 376 204 c 2,41,-1
 467 204 l 2,42,43
 473 204 473 204 473 198 c 0,44,45
 473 121 473 121 431 68 c 0,46,47
 385 11 385 11 301 1 c 0,48,49
 294 0 294 0 294 7 c 2,50,-1
 294 94 l 2,51,52
 294 100 294 100 301 101 c 0,37,38
EndSplineSet
Validated: 1
EndChar

StartChar: D
Encoding: 68 68 24
Width: 532
Flags: W
LayerCount: 2
Fore
SplineSet
265 600 m 2,0,-1
 226 600 l 2,1,2
 219 600 219 600 219 607 c 2,3,-1
 219 693 l 2,4,5
 219 700 219 700 226 700 c 2,6,-1
 271 700 l 2,7,8
 368 700 368 700 423 640 c 0,9,10
 472 586 472 586 472 502 c 2,11,-1
 472 200 l 2,12,13
 472 108 472 108 415 54 c 128,-1,14
 358 0 358 0 271 0 c 2,15,-1
 226 0 l 2,16,17
 219 0 219 0 219 7 c 2,18,-1
 219 93 l 2,19,20
 219 100 219 100 226 100 c 2,21,-1
 265 100 l 2,22,23
 311 100 311 100 339.5 128 c 128,-1,24
 368 156 368 156 368 199 c 2,25,-1
 369 500 l 2,26,27
 369 540 369 540 343 568 c 0,28,29
 314 600 314 600 265 600 c 2,0,-1
172 0 m 2,30,-1
 82 0 l 2,31,32
 75 0 75 0 75 6 c 2,33,-1
 75 693 l 2,34,35
 75 700 75 700 81 700 c 2,36,-1
 173 700 l 2,37,38
 179 700 179 700 179 695 c 2,39,-1
 179 7 l 2,40,41
 179 0 179 0 172 0 c 2,30,-1
EndSplineSet
Validated: 1
EndChar

StartChar: E
Encoding: 69 69 25
Width: 535
Flags: W
LayerCount: 2
Fore
SplineSet
172 0 m 2,0,-1
 82 0 l 2,1,2
 75 0 75 0 75 6 c 2,3,-1
 75 693 l 2,4,5
 75 700 75 700 81 700 c 2,6,-1
 173 700 l 2,7,8
 179 700 179 700 179 695 c 2,9,-1
 179 7 l 2,10,11
 179 0 179 0 172 0 c 2,0,-1
223 608 m 2,12,-1
 223 693 l 2,13,14
 223 700 223 700 229 700 c 2,15,-1
 468 700 l 2,16,17
 475 700 475 700 475 694 c 2,18,-1
 475 607 l 2,19,20
 475 601 475 601 470 601 c 2,21,-1
 229 601 l 2,22,23
 223 601 223 601 223 608 c 2,12,-1
223 7 m 2,24,-1
 223 92 l 2,25,26
 223 99 223 99 229 99 c 2,27,-1
 468 99 l 2,28,29
 475 99 475 99 475 93 c 2,30,-1
 475 6 l 2,31,32
 475 0 475 0 470 0 c 2,33,-1
 229 0 l 2,34,35
 223 0 223 0 223 7 c 2,24,-1
223 306 m 2,36,-1
 223 391 l 2,37,38
 223 398 223 398 229 398 c 2,39,-1
 390 398 l 2,40,41
 397 398 397 398 397 392 c 2,42,-1
 397 305 l 2,43,44
 397 299 397 299 392 299 c 2,45,-1
 229 299 l 2,46,47
 223 299 223 299 223 306 c 2,36,-1
EndSplineSet
Validated: 1
EndChar

StartChar: F
Encoding: 70 70 26
Width: 535
Flags: W
LayerCount: 2
Fore
SplineSet
172 0 m 2,0,-1
 82 0 l 2,1,2
 75 0 75 0 75 6 c 2,3,-1
 75 693 l 2,4,5
 75 700 75 700 81 700 c 2,6,-1
 173 700 l 2,7,8
 179 700 179 700 179 695 c 2,9,-1
 179 7 l 2,10,11
 179 0 179 0 172 0 c 2,0,-1
223 608 m 2,12,-1
 223 693 l 2,13,14
 223 700 223 700 229 700 c 2,15,-1
 468 700 l 2,16,17
 475 700 475 700 475 694 c 2,18,-1
 475 607 l 2,19,20
 475 601 475 601 470 601 c 2,21,-1
 229 601 l 2,22,23
 223 601 223 601 223 608 c 2,12,-1
223 306 m 2,24,-1
 223 391 l 2,25,26
 223 398 223 398 229 398 c 2,27,-1
 390 398 l 2,28,29
 397 398 397 398 397 392 c 2,30,-1
 397 305 l 2,31,32
 397 299 397 299 392 299 c 2,33,-1
 229 299 l 2,34,35
 223 299 223 299 223 306 c 2,24,-1
EndSplineSet
Validated: 1
EndChar

StartChar: G
Encoding: 71 71 27
Width: 542
Flags: W
LayerCount: 2
Fore
SplineSet
241 600 m 0,0,1
 173 584 173 584 173 494 c 2,2,-1
 173 206 l 2,3,4
 173 115 173 115 241 100 c 0,5,6
 248 98 248 98 248 93 c 2,7,-1
 248 6 l 2,8,9
 248 -1 248 -1 241 0 c 0,10,11
 69 23 69 23 69 211 c 2,12,-1
 69 489 l 2,13,14
 69 579 69 579 113 634.5 c 128,-1,15
 157 690 157 690 241 700 c 0,16,17
 248 701 248 701 248 694 c 2,18,-1
 248 607 l 2,19,20
 248 602 248 602 241 600 c 0,0,1
301 601 m 0,21,22
 294 602 294 602 294 608 c 2,23,-1
 294 695 l 2,24,25
 294 702 294 702 301 701 c 0,26,27
 385 691 385 691 431 634 c 0,28,29
 473 581 473 581 473 504 c 0,30,31
 473 498 473 498 467 498 c 2,32,-1
 376 498 l 2,33,34
 369 498 369 498 369 504 c 0,35,36
 367 587 367 587 301 601 c 0,21,22
301 101 m 0,37,38
 333 108 333 108 351 135 c 128,-1,39
 369 162 369 162 369 199 c 2,40,-1
 369 298 l 1,41,-1
 277 298 l 2,42,43
 271 298 271 298 271 304 c 2,44,-1
 271 387 l 2,45,46
 271 393 271 393 277 393 c 2,47,-1
 468 393 l 2,48,49
 473 393 473 393 473 387 c 2,50,-1
 473 198 l 2,51,52
 473 121 473 121 431 68 c 0,53,54
 385 11 385 11 301 1 c 0,55,56
 294 0 294 0 294 7 c 2,57,-1
 294 94 l 2,58,59
 294 100 294 100 301 101 c 0,37,38
EndSplineSet
Validated: 1
EndChar

StartChar: H
Encoding: 72 72 28
Width: 549
Flags: MW
HStem: 297 99<219 327>
VStem: 75 104<0 700> 370 104<0 700>
LayerCount: 2
Fore
SplineSet
172 0 m 2,0,-1
 82 0 l 2,1,2
 75 0 75 0 75 6 c 2,3,-1
 75 693 l 2,4,5
 75 700 75 700 81 700 c 2,6,-1
 173 700 l 2,7,8
 179 700 179 700 179 695 c 2,9,-1
 179 7 l 2,10,11
 179 0 179 0 172 0 c 2,0,-1
219 304 m 2,12,-1
 219 389 l 2,13,14
 219 396 219 396 225 396 c 2,15,-1
 320 396 l 2,16,17
 327 396 327 396 327 390 c 2,18,-1
 327 303 l 2,19,20
 327 297 327 297 322 297 c 2,21,-1
 225 297 l 2,22,23
 219 297 219 297 219 304 c 2,12,-1
467 0 m 2,24,-1
 377 0 l 2,25,26
 370 0 370 0 370 6 c 2,27,-1
 370 693 l 2,28,29
 370 700 370 700 376 700 c 2,30,-1
 468 700 l 2,31,32
 474 700 474 700 474 695 c 2,33,-1
 474 7 l 2,34,35
 474 0 474 0 467 0 c 2,24,-1
EndSplineSet
Validated: 1
EndChar

StartChar: I
Encoding: 73 73 29
Width: 254
Flags: W
HStem: 0 21G<78.5 175.5> 0 21G<78.5 175.5> 680 20G<78 176> 680 20G<78 176>
VStem: 75 104<0 700>
LayerCount: 2
Fore
SplineSet
172 0 m 2,0,-1
 82 0 l 2,1,2
 75 0 75 0 75 6 c 2,3,-1
 75 693 l 2,4,5
 75 700 75 700 81 700 c 2,6,-1
 173 700 l 2,7,8
 179 700 179 700 179 695 c 2,9,-1
 179 7 l 2,10,11
 179 0 179 0 172 0 c 2,0,-1
EndSplineSet
Validated: 1
EndChar

StartChar: J
Encoding: 74 74 30
Width: 347
Flags: W
LayerCount: 2
Fore
SplineSet
5 16 m 2,0,-1
 39 102 l 2,1,2
 40 105 40 105 45 103 c 0,3,4
 58 98 58 98 80 98 c 0,5,6
 121 98 121 98 150 124 c 128,-1,7
 179 150 179 150 179 189 c 2,8,-1
 179 693 l 2,9,10
 179 700 179 700 185 700 c 2,11,-1
 277 700 l 2,12,13
 283 700 283 700 283 695 c 2,14,-1
 283 190 l 2,15,16
 283 106 283 106 225 53 c 128,-1,17
 167 0 167 0 79 0 c 0,18,19
 39 0 39 0 5 12 c 0,20,21
 4 13 4 13 5 16 c 2,0,-1
EndSplineSet
Validated: 1
EndChar

StartChar: K
Encoding: 75 75 31
Width: 534
Flags: W
LayerCount: 2
Fore
SplineSet
169 0 m 2,0,-1
 82 0 l 2,1,2
 75 0 75 0 75 6 c 2,3,-1
 75 693 l 2,4,5
 75 700 75 700 81 700 c 2,6,-1
 170 700 l 2,7,8
 176 700 176 700 176 695 c 2,9,-1
 176 7 l 2,10,11
 176 0 176 0 169 0 c 2,0,-1
469 0 m 2,12,-1
 368 0 l 1,13,14
 366 1 366 1 365 4 c 2,15,-1
 234 295 l 1,16,17
 230 290 230 290 227 290 c 256,18,19
 224 290 224 290 224 295 c 2,20,-1
 224 470 l 1,21,-1
 361 697 l 2,22,23
 363 700 363 700 364 700 c 2,24,-1
 468 700 l 2,25,26
 478 700 478 700 471 689 c 2,27,-1
 296 399 l 1,28,-1
 474 6 l 2,29,30
 476 0 476 0 469 0 c 2,12,-1
EndSplineSet
Validated: 1
EndChar

StartChar: L
Encoding: 76 76 32
Width: 484
Flags: W
HStem: 0 102<179 424> 680 20G<78 176> 680 20G<78 176>
VStem: 75 104<102 700>
LayerCount: 2
Fore
SplineSet
417 0 m 2,0,-1
 82 0 l 2,1,2
 75 0 75 0 75 6 c 2,3,-1
 75 693 l 2,4,5
 75 700 75 700 81 700 c 2,6,-1
 173 700 l 2,7,8
 179 700 179 700 179 695 c 2,9,-1
 179 102 l 1,10,-1
 417 102 l 2,11,12
 424 102 424 102 424 95 c 2,13,-1
 424 7 l 2,14,15
 424 0 424 0 417 0 c 2,0,-1
EndSplineSet
Validated: 1
EndChar

StartChar: M
Encoding: 77 77 33
Width: 677
Flags: W
LayerCount: 2
Fore
SplineSet
170 0 m 2,0,-1
 82 0 l 2,1,2
 75 0 75 0 75 6 c 2,3,-1
 75 535 l 2,4,5
 75 542 75 542 79 543 c 0,6,7
 83 543 83 543 85 538 c 2,8,-1
 177 296 l 1,9,-1
 177 7 l 2,10,11
 177 0 177 0 170 0 c 2,0,-1
506 0 m 2,12,13
 499 0 499 0 499 7 c 2,14,-1
 499 296 l 1,15,-1
 591 538 l 2,16,17
 593 543 593 543 597 543 c 0,18,19
 601 542 601 542 601 535 c 2,20,-1
 601 6 l 2,21,22
 601 0 601 0 594 0 c 2,23,-1
 506 0 l 2,12,13
385 122 m 2,24,-1
 290 122 l 1,25,26
 289 123 289 123 287 126 c 2,27,-1
 76 692 l 2,28,29
 73 699 73 699 80 699 c 2,30,-1
 179 699 l 2,31,32
 183 699 183 699 185 695 c 2,33,-1
 393 139 l 1,34,-1
 390 128 l 2,35,36
 388 122 388 122 385 122 c 2,24,-1
497 700 m 2,37,-1
 597 700 l 2,38,39
 603 700 603 700 601 694 c 2,40,-1
 422 216 l 2,41,42
 419 208 419 208 416 216 c 2,43,-1
 364 353 l 1,44,-1
 493 695 l 2,45,46
 494 700 494 700 497 700 c 2,37,-1
EndSplineSet
Validated: 1
EndChar

StartChar: N
Encoding: 78 78 34
Width: 552
Flags: W
LayerCount: 2
Fore
SplineSet
167 0 m 2,0,-1
 83 0 l 2,1,2
 76 0 76 0 76 6 c 2,3,-1
 76 543 l 2,4,5
 76 550 76 550 80 551 c 0,6,7
 84 551 84 551 86 546 c 2,8,-1
 174 338 l 1,9,-1
 174 8 l 2,10,11
 174 0 174 0 167 0 c 2,0,-1
384 700 m 2,12,-1
 468 700 l 2,13,14
 475 700 475 700 475 694 c 2,15,-1
 475 157 l 2,16,17
 475 150 475 150 471 149 c 0,18,19
 467 149 467 149 465 154 c 2,20,-1
 377 362 l 1,21,-1
 377 692 l 2,22,23
 377 700 377 700 384 700 c 2,12,-1
472 0 m 2,24,-1
 371 0 l 1,25,26
 369 1 369 1 368 4 c 2,27,-1
 76 693 l 2,28,29
 73 700 73 700 80 700 c 2,30,-1
 179 700 l 2,31,32
 183 700 183 700 185 696 c 2,33,-1
 477 6 l 2,34,35
 480 0 480 0 472 0 c 2,24,-1
EndSplineSet
Validated: 1
EndChar

StartChar: O
Encoding: 79 79 35
Width: 542
Flags: W
LayerCount: 2
Fore
SplineSet
241 600 m 0,0,1
 173 584 173 584 173 494 c 2,2,-1
 173 206 l 2,3,4
 173 115 173 115 241 100 c 0,5,6
 248 98 248 98 248 93 c 2,7,-1
 248 6 l 2,8,9
 248 -1 248 -1 241 0 c 0,10,11
 69 23 69 23 69 211 c 2,12,-1
 69 489 l 2,13,14
 69 579 69 579 113 634.5 c 128,-1,15
 157 690 157 690 241 700 c 0,16,17
 248 701 248 701 248 694 c 2,18,-1
 248 607 l 2,19,20
 248 602 248 602 241 600 c 0,0,1
301 601 m 0,21,22
 294 603 294 603 294 608 c 2,23,-1
 294 695 l 2,24,25
 294 702 294 702 301 701 c 0,26,27
 385 691 385 691 429 635.5 c 128,-1,28
 473 580 473 580 473 490 c 2,29,-1
 473 212 l 2,30,31
 473 24 473 24 301 1 c 0,32,33
 294 0 294 0 294 7 c 2,34,-1
 294 94 l 2,35,36
 294 99 294 99 301 101 c 0,37,38
 369 116 369 116 369 207 c 2,39,-1
 369 495 l 2,40,41
 369 585 369 585 301 601 c 0,21,22
EndSplineSet
Validated: 1
EndChar

StartChar: P
Encoding: 80 80 36
Width: 543
Flags: W
LayerCount: 2
Fore
SplineSet
172 0 m 2,0,-1
 82 0 l 2,1,2
 75 0 75 0 75 6 c 2,3,-1
 75 693 l 2,4,5
 75 700 75 700 81 700 c 2,6,-1
 173 700 l 2,7,8
 179 700 179 700 179 695 c 2,9,-1
 179 7 l 2,10,11
 179 0 179 0 172 0 c 2,0,-1
271 600 m 2,12,-1
 232 600 l 2,13,14
 225 600 225 600 225 607 c 2,15,-1
 225 693 l 2,16,17
 225 700 225 700 232 700 c 2,18,-1
 277 700 l 2,19,20
 363 700 363 700 419 648 c 0,21,22
 478 593 478 593 478 501 c 0,23,24
 478 410 478 410 416 353 c 0,25,26
 358 300 358 300 277 300 c 2,27,-1
 232 300 l 2,28,29
 225 300 225 300 225 307 c 2,30,-1
 225 393 l 2,31,32
 225 400 225 400 232 400 c 2,33,-1
 271 400 l 2,34,35
 317 400 317 400 346 428.5 c 128,-1,36
 375 457 375 457 375 500 c 0,37,38
 375 542 375 542 347 571 c 128,-1,39
 319 600 319 600 271 600 c 2,12,-1
EndSplineSet
Validated: 1
EndChar

StartChar: Q
Encoding: 81 81 37
Width: 580
Flags: W
LayerCount: 2
Fore
SplineSet
241 600 m 0,0,1
 173 584 173 584 173 494 c 2,2,-1
 173 206 l 2,3,4
 173 115 173 115 241 100 c 0,5,6
 248 98 248 98 248 93 c 2,7,-1
 248 6 l 2,8,9
 248 -1 248 -1 241 0 c 0,10,11
 69 23 69 23 69 211 c 2,12,-1
 69 489 l 2,13,14
 69 579 69 579 113 634.5 c 128,-1,15
 157 690 157 690 241 700 c 0,16,17
 248 701 248 701 248 694 c 2,18,-1
 248 607 l 2,19,20
 248 602 248 602 241 600 c 0,0,1
301 600 m 1,21,-1
 301 598 l 1,22,23
 294 599 294 599 294 605 c 2,24,-1
 294 692 l 2,25,26
 294 699 294 699 301 698 c 0,27,28
 385 688 385 688 429 632.5 c 128,-1,29
 473 577 473 577 473 487 c 2,30,-1
 473 209 l 2,31,32
 473 178 473 178 465 140 c 1,33,-1
 515 113 l 2,34,35
 520 110 520 110 520 106 c 2,36,-1
 520 4 l 2,37,38
 520 -6 520 -6 509 1 c 2,39,-1
 422 55 l 1,40,41
 399 30 399 30 364 14 c 128,-1,42
 329 -2 329 -2 301 -2 c 1,43,44
 294 -3 294 -3 294 4 c 2,45,-1
 294 91 l 2,46,47
 294 97 294 97 301 98 c 0,48,49
 321 102 321 102 330 109 c 1,50,-1
 300 123 l 2,51,52
 294 125 294 125 294 130 c 2,53,-1
 294 232 l 2,54,55
 294 243 294 243 302 240 c 1,56,-1
 369 201 l 1,57,-1
 369 494 l 2,58,59
 369 584 369 584 301 600 c 1,21,-1
EndSplineSet
Validated: 1
EndChar

StartChar: R
Encoding: 82 82 38
Width: 544
Flags: W
LayerCount: 2
Fore
SplineSet
172 0 m 2,0,-1
 82 0 l 2,1,2
 75 0 75 0 75 6 c 2,3,-1
 75 693 l 2,4,5
 75 700 75 700 81 700 c 2,6,-1
 173 700 l 2,7,8
 179 700 179 700 179 695 c 2,9,-1
 179 7 l 2,10,11
 179 0 179 0 172 0 c 2,0,-1
271 600 m 2,12,-1
 232 600 l 2,13,14
 225 600 225 600 225 607 c 2,15,-1
 225 694 l 2,16,17
 225 701 225 701 232 701 c 2,18,-1
 272 701 l 2,19,20
 359 701 359 701 417 650 c 0,21,22
 478 595 478 595 478 504 c 0,23,24
 478 435 478 435 443 383 c 0,25,26
 413 338 413 338 362 315 c 1,27,-1
 478 10 l 1,28,29
 483 0 483 0 472 0 c 2,30,-1
 372 0 l 2,31,32
 369 0 369 0 368 4 c 2,33,-1
 269 295 l 1,34,-1
 232 295 l 2,35,36
 225 295 225 295 225 302 c 2,37,-1
 225 388 l 2,38,39
 225 395 225 395 232 395 c 2,40,-1
 271 395 l 2,41,42
 316 395 316 395 345.5 426 c 128,-1,43
 375 457 375 457 375 500 c 0,44,45
 375 542 375 542 347 571 c 128,-1,46
 319 600 319 600 271 600 c 2,12,-1
EndSplineSet
Validated: 1
EndChar

StartChar: S
Encoding: 83 83 39
Width: 523
Flags: W
LayerCount: 2
Fore
SplineSet
463 202 m 0,0,1
 463 118 463 118 404 56 c 0,2,3
 350 0 350 0 289 0 c 0,4,5
 284 0 284 0 284 3 c 2,6,-1
 284 94 l 2,7,8
 284 102 284 102 289 102 c 1,9,10
 319 109 319 109 340 133 c 0,11,12
 364 161 364 161 364 203 c 0,13,14
 364 276 364 276 255 300 c 1,15,16
 171 310 171 310 118 362 c 0,17,18
 61 417 61 417 61 502 c 0,19,20
 61 596 61 596 126 654 c 0,21,22
 178 700 178 700 233 700 c 0,23,24
 240 700 240 700 240 696 c 2,25,-1
 240 604 l 2,26,27
 240 599 240 599 234 599 c 1,28,29
 211 594 211 594 190 574 c 0,30,31
 161 546 161 546 161 503 c 0,32,33
 161 456 161 456 195 430 c 0,34,35
 220 410 220 410 275 396 c 1,36,37
 353 385 353 385 403 341 c 0,38,39
 463 289 463 289 463 202 c 0,0,1
230 0 m 0,40,41
 121 8 121 8 61 94 c 0,42,43
 60 95 60 95 60 97 c 256,44,45
 60 99 60 99 61 100 c 2,46,-1
 131 156 l 2,47,48
 134 158 134 158 136 156 c 0,49,50
 172 110 172 110 229 102 c 0,51,52
 235 102 235 102 236 94 c 1,53,-1
 236 3 l 2,54,55
 236 0 236 0 230 0 c 0,40,41
291 700 m 0,56,57
 400 691 400 691 460 608 c 0,58,59
 463 605 463 605 460 602 c 2,60,-1
 391 544 l 1,61,62
 386 542 386 542 384 544 c 0,63,64
 352 591 352 591 292 600 c 0,65,66
 286 600 286 600 285 608 c 1,67,-1
 285 697 l 2,68,69
 285 700 285 700 291 700 c 0,56,57
EndSplineSet
Validated: 1
EndChar

StartChar: T
Encoding: 84 84 40
Width: 473
Flags: W
HStem: 0 21G<187.5 284.5> 0 21G<187.5 284.5> 600 100<60 184 288 413>
VStem: 184 104<0 600>
LayerCount: 2
Fore
SplineSet
281 0 m 2,0,-1
 191 0 l 2,1,2
 184 0 184 0 184 6 c 2,3,-1
 184 600 l 1,4,-1
 67 600 l 2,5,6
 60 600 60 600 60 606 c 2,7,-1
 60 693 l 2,8,9
 60 700 60 700 66 700 c 2,10,-1
 407 700 l 2,11,12
 413 700 413 700 413 695 c 2,13,-1
 413 607 l 2,14,15
 413 600 413 600 406 600 c 2,16,-1
 288 600 l 1,17,-1
 288 7 l 2,18,19
 288 0 288 0 281 0 c 2,0,-1
EndSplineSet
Validated: 1
EndChar

StartChar: U
Encoding: 85 85 41
Width: 540
Flags: W
LayerCount: 2
Fore
SplineSet
169 694 m 2,0,-1
 169 206 l 2,1,2
 169 116 169 116 241 100 c 0,3,4
 248 98 248 98 248 93 c 2,5,-1
 248 5 l 2,6,7
 248 -2 248 -2 241 -1 c 0,8,9
 157 10 157 10 113 65.5 c 128,-1,10
 69 121 69 121 69 211 c 2,11,-1
 69 694 l 2,12,13
 69 700 69 700 75 700 c 2,14,-1
 163 700 l 2,15,16
 169 700 169 700 169 694 c 2,0,-1
371 694 m 2,17,18
 371 700 371 700 377 700 c 2,19,-1
 465 700 l 2,20,21
 471 700 471 700 471 694 c 2,22,-1
 471 211 l 2,23,24
 471 121 471 121 427 65.5 c 128,-1,25
 383 10 383 10 299 -1 c 0,26,27
 292 -2 292 -2 292 5 c 2,28,-1
 292 93 l 2,29,30
 292 98 292 98 299 100 c 0,31,32
 371 116 371 116 371 206 c 2,33,-1
 371 694 l 2,17,18
EndSplineSet
Validated: 1
EndChar

StartChar: V
Encoding: 86 86 42
Width: 543
Flags: W
LayerCount: 2
Fore
SplineSet
62 700 m 2,0,-1
 162 700 l 1,1,2
 163 699 163 699 165 696 c 1,3,-1
 325 8 l 1,4,5
 328 0 328 0 322 0 c 2,6,-1
 223 0 l 2,7,8
 221 0 221 0 219 4 c 1,9,-1
 61 695 l 2,10,11
 59 700 59 700 62 700 c 2,0,-1
385 700 m 2,12,-1
 476 700 l 2,13,14
 483 700 483 700 483 694 c 1,15,-1
 350 121 l 2,16,17
 349 118 349 118 346 118 c 256,18,19
 343 118 343 118 342 121 c 2,20,-1
 297 329 l 1,21,-1
 382 697 l 1,22,23
 384 700 384 700 385 700 c 2,12,-1
EndSplineSet
Validated: 1
EndChar

StartChar: W
Encoding: 87 87 43
Width: 613
Flags: W
LayerCount: 2
Fore
SplineSet
35 700 m 2,0,-1
 133 700 l 1,1,2
 134 699 134 699 136 696 c 1,3,-1
 245 8 l 1,4,5
 248 0 248 0 242 0 c 2,6,-1
 142 0 l 2,7,8
 140 0 140 0 138 4 c 1,9,-1
 34 695 l 1,10,11
 32 700 32 700 35 700 c 2,0,-1
258 700 m 2,12,-1
 350 700 l 2,13,14
 357 700 357 700 357 694 c 2,15,-1
 273 171 l 2,16,17
 273 168 273 168 269 168 c 256,18,19
 265 168 265 168 265 171 c 2,20,-1
 218 462 l 1,21,-1
 255 697 l 1,22,23
 257 700 257 700 258 700 c 2,12,-1
484 700 m 2,24,-1
 576 700 l 2,25,26
 583 700 583 700 583 694 c 2,27,-1
 499 171 l 2,28,29
 499 168 499 168 495 168 c 256,30,31
 491 168 491 168 491 171 c 2,32,-1
 444 462 l 1,33,-1
 481 697 l 1,34,35
 483 700 483 700 484 700 c 2,24,-1
368 0 m 2,36,37
 367 0 367 0 365 3 c 1,38,-1
 328 238 l 1,39,-1
 375 529 l 2,40,41
 375 532 375 532 379 532 c 256,42,43
 383 532 383 532 383 529 c 2,44,-1
 467 6 l 2,45,46
 467 0 467 0 460 0 c 2,47,-1
 368 0 l 2,36,37
EndSplineSet
Validated: 1
EndChar

StartChar: X
Encoding: 88 88 44
Width: 541
Flags: W
LayerCount: 2
Fore
SplineSet
158 0 m 2,0,-1
 68 0 l 2,1,2
 59 0 59 0 62 7 c 2,3,-1
 187 285 l 2,4,5
 193 298 193 298 197 288 c 2,6,-1
 246 176 l 1,7,-1
 164 8 l 2,8,9
 160 0 160 0 158 0 c 2,0,-1
476 0 m 2,10,-1
 375 0 l 1,11,12
 373 1 373 1 372 4 c 2,13,-1
 61 693 l 2,14,15
 58 700 58 700 65 700 c 2,16,-1
 165 700 l 2,17,18
 169 700 169 700 171 696 c 2,19,-1
 481 6 l 2,20,21
 483 0 483 0 476 0 c 2,10,-1
380 700 m 2,22,-1
 471 700 l 2,23,24
 480 700 480 700 477 693 c 2,25,-1
 355 420 l 2,26,27
 349 407 349 407 345 417 c 2,28,-1
 298 532 l 1,29,-1
 374 692 l 2,30,31
 378 700 378 700 380 700 c 2,22,-1
EndSplineSet
Validated: 1
EndChar

StartChar: Y
Encoding: 89 89 45
Width: 541
Flags: W
LayerCount: 2
Fore
SplineSet
315 0 m 2,0,-1
 223 0 l 2,1,2
 220 0 220 0 220 4 c 2,3,-1
 220 242 l 1,4,-1
 61 693 l 2,5,6
 58 700 58 700 65 700 c 2,7,-1
 163 700 l 2,8,9
 167 700 167 700 169 696 c 2,10,-1
 320 259 l 1,11,-1
 320 6 l 2,12,13
 320 0 320 0 315 0 c 2,0,-1
381 700 m 2,14,-1
 474 700 l 2,15,16
 484 700 484 700 480 693 c 1,17,-1
 352 337 l 2,18,19
 347 324 347 324 342 334 c 1,20,-1
 295 475 l 1,21,-1
 375 692 l 2,22,23
 378 700 378 700 381 700 c 2,14,-1
EndSplineSet
Validated: 1
EndChar

StartChar: Z
Encoding: 90 90 46
Width: 537
Flags: W
LayerCount: 2
Fore
SplineSet
174 0 m 2,0,-1
 76 0 l 2,1,2
 69 0 69 0 69 6 c 2,3,-1
 69 98 l 1,4,-1
 355 602 l 1,5,-1
 355 694 l 2,6,7
 355 701 355 701 361 701 c 2,8,-1
 461 701 l 2,9,10
 467 701 467 701 467 696 c 2,11,-1
 467 602 l 1,12,-1
 181 98 l 1,13,-1
 181 7 l 2,14,15
 181 0 181 0 174 0 c 2,0,-1
230 7 m 2,16,-1
 230 91 l 2,17,18
 230 98 230 98 236 98 c 2,19,-1
 461 98 l 2,20,21
 468 98 468 98 468 92 c 2,22,-1
 468 6 l 2,23,24
 468 0 468 0 463 0 c 2,25,-1
 236 0 l 2,26,27
 230 0 230 0 230 7 c 2,16,-1
69 609 m 2,28,-1
 69 693 l 2,29,30
 69 700 69 700 75 700 c 2,31,-1
 296 700 l 2,32,33
 303 700 303 700 303 694 c 2,34,-1
 303 608 l 2,35,36
 303 602 303 602 298 602 c 2,37,-1
 75 602 l 2,38,39
 69 602 69 602 69 609 c 2,28,-1
EndSplineSet
Validated: 1
EndChar

StartChar: endash
Encoding: 260 8211 47
Width: 587
Flags: W
LayerCount: 2
Fore
SplineSet
68 282 m 2,0,-1
 68 367 l 2,1,2
 68 374 68 374 74 374 c 2,3,-1
 511 374 l 2,4,5
 518 374 518 374 518 368 c 2,6,-1
 518 281 l 2,7,8
 518 275 518 275 513 275 c 2,9,-1
 74 275 l 2,10,11
 68 275 68 275 68 282 c 2,0,-1
EndSplineSet
Validated: 1
EndChar

StartChar: Adieresis
Encoding: 196 196 48
Width: 631
Flags: W
LayerCount: 2
Fore
SplineSet
569 0 m 2,0,-1
 462 0 l 1,1,2
 461 1 461 1 459 4 c 1,3,-1
 262 692 l 2,4,5
 260 700 260 700 265 700 c 2,6,-1
 362 700 l 2,7,8
 364 700 364 700 366 696 c 2,9,-1
 570 5 l 2,10,11
 571 0 571 0 569 0 c 2,0,-1
162 0 m 2,12,-1
 67 0 l 2,13,14
 60 0 60 0 60 6 c 1,15,-1
 229 603 l 2,16,17
 230 606 230 606 233 606 c 256,18,19
 236 606 236 606 237 603 c 2,20,-1
 285 429 l 1,21,-1
 235 250 l 1,22,-1
 340 250 l 2,23,24
 341 250 341 250 343 248 c 1,25,-1
 369 149 l 2,26,27
 370 145 370 145 366 145 c 2,28,-1
 204 145 l 1,29,-1
 166 2 l 2,30,31
 165 0 165 0 162 0 c 2,12,-1
264 750 m 2,32,-1
 172 750 l 2,33,34
 168 750 168 750 168 754 c 2,35,-1
 168 847 l 2,36,37
 168 850 168 850 171 850 c 2,38,-1
 264 850 l 2,39,40
 268 850 268 850 268 847 c 2,41,-1
 268 754 l 2,42,43
 268 750 268 750 264 750 c 2,32,-1
441 750 m 2,44,-1
 349 750 l 2,45,46
 345 750 345 750 345 754 c 2,47,-1
 345 847 l 2,48,49
 345 850 345 850 348 850 c 2,50,-1
 441 850 l 2,51,52
 445 850 445 850 445 847 c 2,53,-1
 445 754 l 2,54,55
 445 750 445 750 441 750 c 2,44,-1
EndSplineSet
Validated: 1
EndChar

StartChar: Odieresis
Encoding: 214 214 49
Width: 542
Flags: W
LayerCount: 2
Fore
SplineSet
241 600 m 0,0,1
 173 584 173 584 173 494 c 2,2,-1
 173 206 l 2,3,4
 173 115 173 115 241 100 c 0,5,6
 248 98 248 98 248 93 c 2,7,-1
 248 6 l 2,8,9
 248 -1 248 -1 241 0 c 0,10,11
 69 23 69 23 69 211 c 2,12,-1
 69 489 l 2,13,14
 69 579 69 579 113 634.5 c 128,-1,15
 157 690 157 690 241 700 c 0,16,17
 248 701 248 701 248 694 c 2,18,-1
 248 607 l 2,19,20
 248 602 248 602 241 600 c 0,0,1
301 601 m 0,21,22
 294 603 294 603 294 608 c 2,23,-1
 294 695 l 2,24,25
 294 702 294 702 301 701 c 0,26,27
 385 691 385 691 429 635.5 c 128,-1,28
 473 580 473 580 473 490 c 2,29,-1
 473 212 l 2,30,31
 473 24 473 24 301 1 c 0,32,33
 294 0 294 0 294 7 c 2,34,-1
 294 94 l 2,35,36
 294 99 294 99 301 101 c 0,37,38
 369 116 369 116 369 207 c 2,39,-1
 369 495 l 2,40,41
 369 585 369 585 301 601 c 0,21,22
227 750 m 2,42,-1
 135 750 l 2,43,44
 131 750 131 750 131 754 c 2,45,-1
 131 847 l 2,46,47
 131 850 131 850 134 850 c 2,48,-1
 227 850 l 2,49,50
 231 850 231 850 231 847 c 2,51,-1
 231 754 l 2,52,53
 231 750 231 750 227 750 c 2,42,-1
404 750 m 2,54,-1
 312 750 l 2,55,56
 308 750 308 750 308 754 c 2,57,-1
 308 847 l 2,58,59
 308 850 308 850 311 850 c 2,60,-1
 404 850 l 2,61,62
 408 850 408 850 408 847 c 2,63,-1
 408 754 l 2,64,65
 408 750 408 750 404 750 c 2,54,-1
EndSplineSet
Validated: 1
EndChar

StartChar: Udieresis
Encoding: 220 220 50
Width: 540
Flags: W
LayerCount: 2
Fore
SplineSet
169 694 m 2,0,-1
 169 206 l 2,1,2
 169 116 169 116 241 100 c 0,3,4
 248 98 248 98 248 93 c 2,5,-1
 248 5 l 2,6,7
 248 -2 248 -2 241 -1 c 0,8,9
 157 10 157 10 113 65.5 c 128,-1,10
 69 121 69 121 69 211 c 2,11,-1
 69 694 l 2,12,13
 69 700 69 700 75 700 c 2,14,-1
 163 700 l 2,15,16
 169 700 169 700 169 694 c 2,0,-1
371 694 m 2,17,18
 371 700 371 700 377 700 c 2,19,-1
 465 700 l 2,20,21
 471 700 471 700 471 694 c 2,22,-1
 471 211 l 2,23,24
 471 121 471 121 427 65.5 c 128,-1,25
 383 10 383 10 299 -1 c 0,26,27
 292 -2 292 -2 292 5 c 2,28,-1
 292 93 l 2,29,30
 292 98 292 98 299 100 c 0,31,32
 371 116 371 116 371 206 c 2,33,-1
 371 694 l 2,17,18
229 750 m 2,34,-1
 137 750 l 2,35,36
 133 750 133 750 133 754 c 2,37,-1
 133 847 l 2,38,39
 133 850 133 850 136 850 c 2,40,-1
 229 850 l 2,41,42
 233 850 233 850 233 847 c 2,43,-1
 233 754 l 2,44,45
 233 750 233 750 229 750 c 2,34,-1
406 750 m 2,46,-1
 314 750 l 2,47,48
 310 750 310 750 310 754 c 2,49,-1
 310 847 l 2,50,51
 310 850 310 850 313 850 c 2,52,-1
 406 850 l 2,53,54
 410 850 410 850 410 847 c 2,55,-1
 410 754 l 2,56,57
 410 750 410 750 406 750 c 2,46,-1
EndSplineSet
Validated: 1
EndChar

StartChar: germandbls
Encoding: 223 223 51
Width: 1035
Flags: W
LayerCount: 2
Fore
SplineSet
463 202 m 0,0,1
 463 118 463 118 404 56 c 0,2,3
 350 0 350 0 289 0 c 0,4,5
 284 0 284 0 284 3 c 2,6,-1
 284 94 l 2,7,8
 284 102 284 102 289 102 c 1,9,10
 319 109 319 109 340 133 c 0,11,12
 364 161 364 161 364 203 c 0,13,14
 364 276 364 276 255 300 c 1,15,16
 171 310 171 310 118 362 c 0,17,18
 61 417 61 417 61 502 c 0,19,20
 61 596 61 596 126 654 c 0,21,22
 178 700 178 700 233 700 c 0,23,24
 240 700 240 700 240 696 c 2,25,-1
 240 604 l 2,26,27
 240 599 240 599 234 599 c 1,28,29
 211 594 211 594 190 574 c 0,30,31
 161 546 161 546 161 503 c 0,32,33
 161 456 161 456 195 430 c 0,34,35
 220 410 220 410 275 396 c 1,36,37
 353 385 353 385 403 341 c 0,38,39
 463 289 463 289 463 202 c 0,0,1
230 0 m 0,40,41
 121 8 121 8 61 94 c 0,42,43
 60 95 60 95 60 97 c 256,44,45
 60 99 60 99 61 100 c 2,46,-1
 131 156 l 2,47,48
 134 158 134 158 136 156 c 0,49,50
 172 110 172 110 229 102 c 0,51,52
 235 102 235 102 236 94 c 1,53,-1
 236 3 l 2,54,55
 236 0 236 0 230 0 c 0,40,41
291 700 m 0,56,57
 400 691 400 691 460 608 c 0,58,59
 463 605 463 605 460 602 c 2,60,-1
 391 544 l 1,61,62
 386 542 386 542 384 544 c 0,63,64
 352 591 352 591 292 600 c 0,65,66
 286 600 286 600 285 608 c 1,67,-1
 285 697 l 2,68,69
 285 700 285 700 291 700 c 0,56,57
975 202 m 0,70,71
 975 118 975 118 916 56 c 0,72,73
 862 0 862 0 801 0 c 0,74,75
 796 0 796 0 796 3 c 2,76,-1
 796 94 l 2,77,78
 796 102 796 102 801 102 c 1,79,80
 831 109 831 109 852 133 c 0,81,82
 876 161 876 161 876 203 c 0,83,84
 876 276 876 276 767 300 c 1,85,86
 683 310 683 310 630 362 c 0,87,88
 573 417 573 417 573 502 c 0,89,90
 573 596 573 596 638 654 c 0,91,92
 690 700 690 700 745 700 c 0,93,94
 752 700 752 700 752 696 c 2,95,-1
 752 604 l 2,96,97
 752 599 752 599 746 599 c 1,98,99
 723 594 723 594 702 574 c 0,100,101
 673 546 673 546 673 503 c 0,102,103
 673 456 673 456 707 430 c 0,104,105
 732 410 732 410 787 396 c 1,106,107
 865 385 865 385 915 341 c 0,108,109
 975 289 975 289 975 202 c 0,70,71
742 0 m 0,110,111
 633 8 633 8 573 94 c 0,112,113
 572 95 572 95 572 97 c 256,114,115
 572 99 572 99 573 100 c 2,116,-1
 643 156 l 2,117,118
 646 158 646 158 648 156 c 0,119,120
 684 110 684 110 741 102 c 0,121,122
 747 102 747 102 748 94 c 1,123,-1
 748 3 l 2,124,125
 748 0 748 0 742 0 c 0,110,111
803 700 m 0,126,127
 912 691 912 691 972 608 c 0,128,129
 975 605 975 605 972 602 c 2,130,-1
 903 544 l 1,131,132
 898 542 898 542 896 544 c 0,133,134
 864 591 864 591 804 600 c 0,135,136
 798 600 798 600 797 608 c 1,137,-1
 797 697 l 2,138,139
 797 700 797 700 803 700 c 0,126,127
EndSplineSet
Validated: 1
EndChar

